<?xml version="1.0" encoding="iso-8859-1"?>
<!-- Generator: Adobe Illustrator 19.0.0, SVG Export Plug-In . SVG Version: 6.00 Build 0)  -->
<svg version="1.1" id="Capa_1" xmlns="http://www.w3.org/2000/svg" xmlns:xlink="http://www.w3.org/1999/xlink" x="0px" y="0px"
	 viewBox="0 0 512.001 512.001" style="enable-background:new 0 0 512.001 512.001;" xml:space="preserve">
<g>
	<g>
		<path fill="#FF008C" d="M223.373,371.631c-5.819-5.819-15.276-5.905-21.21,0c-5.845,5.859-5.845,15.365,0,21.225c5.859,5.83,15.351,5.83,21.21,0
			C229.218,386.997,229.218,377.491,223.373,371.631z"/>
	</g>
</g>
<g>
	<g>
		<path fill="#FF008C" d="M202.163,223.147c-5.819-5.819-15.275-5.905-21.21,0c-5.887,5.916-5.845,15.38,0,21.195
			c5.684,5.698,15.541,5.684,21.195,0.015c0.015,0,0.015,0,0.015-0.015C208.008,238.528,208.05,229.063,202.163,223.147z"/>
	</g>
</g>
<g>
	<g>
		<path fill="#FF008C" d="M498.617,181.328l-24.507-24.505c17.006-34.158,10.663-76.036-17.006-103.677c-27.67-27.699-69.533-34.026-103.691-16.991
			l-22.982-23.012c-17.562-17.519-46.126-17.533-63.63,0.015l-9.686,9.686l30.296,30.302c5.859,5.859,5.859,15.365,0,21.21
			c-5.859,5.859-15.351,5.859-21.21,0l-30.296-30.302L194.59,86.484l231.815,231.801l41.309-42.424l-31.818-31.811
			c-5.859-5.845-5.859-15.351,0-21.21s15.351-5.859,21.21,0l31.818,31.811l9.694-9.694
			C516.166,227.409,516.166,198.876,498.617,181.328z M351.056,137.986c-5.859,5.859-15.351,5.859-21.21,0l-21.225-21.21
			c-5.859-5.845-5.859-15.351,0-21.21c5.859-5.859,15.351-5.859,21.21,0l21.225,21.21
			C356.914,122.62,356.914,132.127,351.056,137.986z M414.686,201.63c-5.859,5.859-15.351,5.859-21.21,0l-21.21-21.225
			c-5.859-5.859-5.859-15.365,0-21.21c5.859-5.859,15.351-5.859,21.21,0l21.21,21.225
			C420.544,186.279,420.544,195.786,414.686,201.63z"/>
	</g>
</g>
<g>
	<g>
		<path fill="#FF008C" d="M173.38,107.694L13.383,267.691c-17.548,17.548-17.548,46.097,0,63.644l23.656,23.656
			c-15.365,33.631-8.525,74.498,18.163,101.172c26.762,26.776,67.805,33.587,101.509,18.017l25.927,25.18
			c17.535,17.031,45.892,16.83,63.161-0.469l159.396-159.397L173.38,107.694z M159.743,201.938
			c17.006-17.006,46.668-16.977,63.645,0c17.566,17.595,17.581,46.049,0,63.63h-0.015v0.015
			c-17.544,17.544-46.012,17.601-63.63-0.015C142.184,248.037,142.126,219.554,159.743,201.938z M244.583,414.066
			c-17.519,17.548-46.082,17.533-63.63,0.015c-17.548-17.562-17.548-46.111,0-63.659c17.006-17.006,46.668-16.977,63.644,0
			C262.131,367.969,262.131,396.518,244.583,414.066z M299.277,312.308l-190.904,21.21c-8.425,0.886-15.669-5.149-16.566-13.256
			c-0.908-8.232,5.024-15.644,13.256-16.566l190.904-21.21c8.452-0.733,15.658,5.039,16.566,13.256
			C313.441,303.974,307.51,311.386,299.277,312.308z"/>
	</g>
</g>
<g>
</g>
<g>
</g>
<g>
</g>
<g>
</g>
<g>
</g>
<g>
</g>
<g>
</g>
<g>
</g>
<g>
</g>
<g>
</g>
<g>
</g>
<g>
</g>
<g>
</g>
<g>
</g>
<g>
</g>
</svg>
