<?xml version="1.0" encoding="iso-8859-1"?>
<!-- Generator: Adobe Illustrator 19.0.0, SVG Export Plug-In . SVG Version: 6.00 Build 0)  -->
<svg version="1.1" id="Capa_1" xmlns="http://www.w3.org/2000/svg" xmlns:xlink="http://www.w3.org/1999/xlink" x="0px" y="0px"
	 viewBox="0 0 340.8 340.8" style="enable-background:new 0 0 340.8 340.8;" xml:space="preserve">
<g>
	<g>
		<g>
			<path d="M237,0H103.8c-24,0-43.6,19.6-43.6,43.6v253.6c0.4,24,19.6,43.6,43.6,43.6H237c24,0,43.6-19.6,43.6-43.6V43.6
				C280.6,19.6,261,0,237,0z M266.2,297.2c0.4,16.4-12.8,29.6-28.8,29.6H103.8c-16.4,0-29.6-13.2-29.6-29.6v-5.6h192V297.2z
				 M266.6,277.2h-192V63.6h192V277.2z M266.6,49.2h-192v-5.6c0-16.4,13.2-29.6,29.2-29.6H237c16.4,0,29.6,13.2,29.6,29.6V49.2z"/>
			<path d="M170.6,322.8c7.6,0,13.6-6,13.6-13.6c0-7.6-6-13.6-13.6-13.6c-7.6,0-13.6,6-13.6,13.6C157,316.8,163,322.8,170.6,322.8z"
				/>
		</g>
	</g>
</g>
<g>
</g>
<g>
</g>
<g>
</g>
<g>
</g>
<g>
</g>
<g>
</g>
<g>
</g>
<g>
</g>
<g>
</g>
<g>
</g>
<g>
</g>
<g>
</g>
<g>
</g>
<g>
</g>
<g>
</g>
</svg>
