<?xml version="1.0" encoding="iso-8859-1"?>
<!-- Generator: Adobe Illustrator 19.0.0, SVG Export Plug-In . SVG Version: 6.00 Build 0)  -->
<svg version="1.1" id="Layer_1" xmlns="http://www.w3.org/2000/svg" xmlns:xlink="http://www.w3.org/1999/xlink" x="0px" y="0px"
	 viewBox="0 0 512 512" style="enable-background:new 0 0 512 512;" xml:space="preserve">
<g>
	<g>
		<g>
			<path d="M444.875,109.792L338.167,3.125c-2-2-4.708-3.125-7.542-3.125H106.667C83.135,0,64,19.135,64,42.667v426.667
				C64,492.865,83.135,512,106.667,512h298.667C428.865,512,448,492.865,448,469.333v-352
				C448,114.5,446.875,111.792,444.875,109.792z M426.667,469.333c0,11.76-9.573,21.333-21.333,21.333H106.667
				c-11.76,0-21.333-9.573-21.333-21.333V42.667c0-11.76,9.573-21.333,21.333-21.333h219.542L426.667,121.75V469.333z"/>
			<path d="M128,224v192c0,17.646,14.354,32,32,32h192c17.646,0,32-14.354,32-32V224c0-17.646-14.354-32-32-32H160
				C142.354,192,128,206.354,128,224z M202.667,426.667H160c-5.885,0-10.667-4.781-10.667-10.667v-42.667h53.333V426.667z
				 M288,426.667h-64v-53.333h64V426.667z M362.667,416c0,5.885-4.781,10.667-10.667,10.667h-42.667v-64
				c0-5.896-4.771-10.667-10.667-10.667H149.333v-64h213.333V416z M309.333,213.333H352c5.885,0,10.667,4.781,10.667,10.667v42.667
				h-53.333V213.333z M224,213.333h64v53.333h-64V213.333z M202.667,266.667h-53.333V224c0-5.885,4.781-10.667,10.667-10.667h42.667
				V266.667z"/>
		</g>
	</g>
</g>
<g>
</g>
<g>
</g>
<g>
</g>
<g>
</g>
<g>
</g>
<g>
</g>
<g>
</g>
<g>
</g>
<g>
</g>
<g>
</g>
<g>
</g>
<g>
</g>
<g>
</g>
<g>
</g>
<g>
</g>
</svg>
