<?xml version="1.0" encoding="iso-8859-1"?>
<!-- Generator: Adobe Illustrator 19.0.0, SVG Export Plug-In . SVG Version: 6.00 Build 0)  -->
<svg version="1.1" id="Capa_1" xmlns="http://www.w3.org/2000/svg" xmlns:xlink="http://www.w3.org/1999/xlink" x="0px" y="0px"
	 viewBox="0 0 512 512" style="enable-background:new 0 0 512 512;" xml:space="preserve">
<g>
	<g>
		<path d="M256,0C114.624,0,0,114.624,0,256s114.624,256,256,256s256-114.624,256-256S397.376,0,256,0z M347.328,155.328
			L278.624,224H320c8.832,0,16,7.168,16,16c0,8.832-7.168,16-16,16h-48v32h48c8.832,0,16,7.168,16,16c0,8.832-7.168,16-16,16h-48v64
			c0,8.832-7.168,16-16,16c-8.832,0-16-7.168-16-16v-64h-48c-8.832,0-16-7.168-16-16c0-8.832,7.168-16,16-16h48v-32h-48
			c-8.832,0-16-7.168-16-16c0-8.832,7.168-16,16-16h41.376l-68.704-68.672c-6.24-6.24-6.24-16.384,0-22.624s16.384-6.24,22.624,0
			L256,201.376l68.672-68.672c6.24-6.24,16.384-6.24,22.624,0S353.568,149.056,347.328,155.328z"/>
	</g>
</g>
<g>
</g>
<g>
</g>
<g>
</g>
<g>
</g>
<g>
</g>
<g>
</g>
<g>
</g>
<g>
</g>
<g>
</g>
<g>
</g>
<g>
</g>
<g>
</g>
<g>
</g>
<g>
</g>
<g>
</g>
</svg>
